<svg xmlns="http://www.w3.org/2000/svg" version="1.1" xmlns:xlink="http://www.w3.org/1999/xlink" xmlns:svgjs="http://svgjs.dev/svgjs" width="100%" height="100%" viewBox="0 0 1000 600"><rect width="1000" height="600" x="0" y="0" fill="transparent"/><g><rect width="333.3333333333333" height="333.3333333333333" rx="13.333333333333334" ry="13.333333333333334" y="213.2581831104524" fill="blue" transform="matrix(0.6543267969171692,0,0,0.6543267969171692,-0.7782199897311017,51.404935597101556)" x="194.4765625"/><path d="M266.903857709353 454.9248622336488L266.903857709353 454.9248622336488Q251.33120485341612 454.9248622336488 237.77452394318212 449.5489370451078Q224.21784303294808 444.17301185656663 213.9918983808319 434.0931521280521Q203.79517071343605 423.9840754148173 198.01020773881032 410.31052656570193Q192.2252447641846 396.63697771658656 192.2252447641846 380.2462492884804L192.2252447641846 380.2462492884804Q192.2252447641846 363.18353021180656 197.92255678464934 349.3054624696489Q203.59065182039373 335.42739472749116 213.46599265586593 325.552053892019Q223.37055047605844 315.6474960718265 236.07993882940286 310.3007878680057Q248.81854416746756 304.9248626794646 262.6966119096253 304.9248626794646L262.6966119096253 304.9248626794646Q277.2174533156302 304.9248626794646 288.2614735399157 309.86253309720075Q299.3054937642012 314.8002035149368 306.98956074564853 323.12704416023143Q314.6736277270958 331.42466782080567 319.0853924198659 341.94278232012516L319.0853924198659 341.94278232012516L309.1808345996734 338.7873479703293L309.1808345996734 307.8757781362182L328.96073325533814 307.8757781362182L328.96073325533814 354.76903861235087L315.0826655131804 356.0545859400455Q310.67090082041034 346.150028119853 304.03864528889494 338.582829077287Q297.4063897573796 331.0156300347211 288.05695464687335 326.80838423499324Q278.6783025516468 322.6011384352654 265.8520462594211 322.6011384352654L265.8520462594211 322.6011384352654Q255.7721865309066 322.6011384352654 246.59805332872236 326.4869974030696Q237.45313711125846 330.37285637087376 230.29497585477714 337.85240445927866Q223.16603158301615 345.30273556296333 219.04643673744934 355.93771800116417Q214.95605887660287 366.572700439365 214.95605887660287 380.0125134107177L214.95605887660287 380.0125134107177Q214.95605887660287 392.4297319168588 218.95878578328833 402.86019546201726Q222.93229570525347 413.2614420224554 230.0028060075738 420.94550900390277Q237.04409932517382 428.62957598535 246.51040237456135 432.7199538461965Q255.97670542394889 436.810331707043 266.903857709353 436.810331707043L266.903857709353 436.810331707043Q276.16564186569826 436.810331707043 283.6451899541033 434.7067088071791Q291.0955210577879 432.6030859073152 297.08500292545597 428.8340948783924Q303.1037017778443 425.0358868647493 307.9245042566991 420.0982164470131Q312.7745237202742 415.16054602927704 316.543514749197 409.46323400881226L316.543514749197 409.46323400881226L330.65531836911737 421.2668958358264Q326.00981779858455 428.19132121454504 319.81581703787424 434.2976710210944Q313.6218162771638 440.4040208276439 305.7332304026742 445.13717235233764Q297.8446445281846 449.8703238770314 288.1446056010344 452.3829845629799Q278.4737836586045 454.9248622336488 266.903857709353 454.9248622336488ZM494.7379045585016 387.170674667199L384.0931834226045 387.170674667199L384.0931834226045 370.54621036133017L494.7379045585016 370.54621036133017L494.7379045585016 387.170674667199ZM424.2665374130609 452.1784656699376L348.5361130179605 452.1784656699376L348.5361130179605 434.5021899141368L424.2665374130609 434.5021899141368L424.2665374130609 452.1784656699376ZM397.76673227171983 442.3031248344654L375.6786918231489 442.3031248344654L375.6786918231489 317.546600078648L397.76673227171983 317.546600078648L397.76673227171983 442.3031248344654ZM424.2665374130609 325.552053892019L348.5361130179605 325.552053892019L348.5361130179605 307.8757781362182L424.2665374130609 307.8757781362182L424.2665374130609 325.552053892019ZM530.0612390853828 452.1784656699376L454.1262957972402 452.1784656699376L454.1262957972402 434.5021899141368L530.0612390853828 434.5021899141368L530.0612390853828 452.1784656699376ZM502.9478772649148 441.8648700636604L481.06435570938623 441.8648700636604L481.06435570938623 317.3420811856057L502.9478772649148 317.3420811856057L502.9478772649148 441.8648700636604ZM530.0612390853828 325.552053892019L454.1262957972402 325.552053892019L454.1262957972402 307.8757781362182L530.0612390853828 307.8757781362182L530.0612390853828 325.552053892019Z " fill="#e2d1f9" transform="matrix(0.6543267969171692,0,0,0.6543267969171692,-0.7782199897311017,51.404935597101556)"/><path d="M699.390921005534 453.6302003304344L611.1432287748823 453.6302003304344L611.1432287748823 435.4146241449878L697.2231168975138 435.4146241449878Q713.9031651731129 435.4146241449878 723.77871722076 429.90478870377Q733.6241608780181 424.3648448721631 733.6241608780181 411.35802022404255L733.6241608780181 411.35802022404255Q733.6241608780181 402.6868037919621 729.0777939292536 397.2672935219118Q724.5314269804892 391.84778325186164 716.2817280138572 389.46922041111736Q708.0621374376144 387.0906575703731 697.2231168975138 387.0906575703731L697.2231168975138 387.0906575703731L653.8670347371119 387.0906575703731L653.8670347371119 370.3805009043848L690.4788374503403 370.3805009043848Q705.0211900083084 370.3805009043848 713.9031651731129 364.53947316888616Q722.7851403379175 358.6683370429985 722.7851403379175 346.11313825071534L722.7851403379175 346.11313825071534Q722.7851403379175 337.65268055135914 718.9011579777148 332.6546877467573Q714.9870672271229 327.6868033325445 708.4836549030626 325.39856566296777Q701.9802425790024 323.1404363837802 694.392928200932 323.1404363837802L694.392928200932 323.1404363837802L611.1432287748823 323.1404363837802L611.1432287748823 304.9248601983335L695.8983477203905 304.9248601983335Q712.1568785305412 304.9248601983335 723.1163326321985 309.8024194413787Q734.0757867338555 314.679978684424 739.7060557366299 323.44152028767184Q745.3363247394043 332.2331702813089 745.3363247394043 343.4937082868578L745.3363247394043 343.4937082868578Q745.3363247394043 353.2488267729482 741.2114752560883 360.5350572471268Q737.0866257727723 367.7911793309164 730.1616959832636 372.6687385739616Q723.2367661937551 377.5462978170068 714.445116200118 379.80442709619444Q705.6534662064809 382.09266476577113 696.349973576228 382.09266476577113L696.349973576228 382.09266476577113L696.349973576228 373.84296579913917Q707.3997528490527 373.84296579913917 717.9075810948723 375.58925244171087Q728.4154093406919 377.3355390842826 737.0866257727723 381.55071373876615Q745.7578422048528 385.7658883932497 750.9665937421787 393.59406989443335Q756.1753452795049 401.3921430052279 756.1753452795049 413.10430686661425L756.1753452795049 413.10430686661425Q756.1753452795049 432.61454383879516 741.4222339888124 443.12237208461477Q726.6992310885094 453.6302003304344 699.390921005534 453.6302003304344L699.390921005534 453.6302003304344ZM661.2134819920689 443.45356437889563L639.1139234464194 443.45356437889563L639.1139234464194 315.10149614987233L661.2134819920689 315.10149614987233L661.2134819920689 443.45356437889563ZM806.2455984966914 449.7161095798426L784.5675574164902 449.7161095798426L842.6767508675846 313.8068353631381L874.3206691666003 313.8068353631381L933.062138815867 449.7161095798426L909.0055348949218 449.7161095798426L855.2319496598677 314.46921995169976L860.0191837317454 314.46921995169976L806.2455984966914 449.7161095798426ZM837.8895167957069 453.6302003304344L767.4358832850537 453.6302003304344L767.4358832850537 435.4146241449878L837.8895167957069 435.4146241449878L837.8895167957069 453.6302003304344ZM897.7449968893729 400.9405171493904L818.1685210908017 400.9405171493904L823.1665138954038 384.68198633923964L892.9577628174952 384.68198633923964L897.7449968893729 400.9405171493904ZM950.1938129473037 453.6302003304344L879.3186619712021 453.6302003304344L879.3186619712021 435.4146241449878L950.1938129473037 435.4146241449878L950.1938129473037 453.6302003304344ZM900.3343184628413 322.8995692606668L816.6631015713435 322.8995692606668L816.6631015713435 304.9248601983335L900.3343184628413 304.9248601983335L900.3343184628413 322.8995692606668ZM1123.4073828561873 454.9248611171687L1112.3576035833628 454.9248611171687L980.3323117268608 304.9248601983335L1008.0621392752846 304.9248601983335L1102.6024850972722 414.8204851187968L1102.6024850972722 308.59808382581195L1123.4073828561873 308.59808382581195L1123.4073828561873 454.9248611171687ZM1034.7381731600876 453.6302003304344L958.8650293793839 453.6302003304344L958.8650293793839 435.4146241449878L1034.7381731600876 435.4146241449878L1034.7381731600876 453.6302003304344ZM1008.0621392752846 450.37849416840425L986.8357240509213 450.37849416840425L986.8357240509213 304.9248601983335L1008.0621392752846 304.9248601983335L1008.0621392752846 450.37849416840425ZM1007.8513805425605 323.1404363837802L958.8650293793839 323.1404363837802L958.8650293793839 304.9248601983335L1008.0621392752846 304.9248601983335L1007.8513805425605 323.1404363837802ZM1150.5049342064385 323.1404363837802L1074.631790425735 323.1404363837802L1074.631790425735 304.9248601983335L1150.5049342064385 304.9248601983335L1150.5049342064385 323.1404363837802ZM1321.5507000073023 318.80482816773997L1199.7020441023392 421.5346561755813L1199.7020441023392 400.9405171493904L1295.9585681765095 318.80482816773997L1321.5507000073023 318.80482816773997ZM1239.3849026352625 453.6302003304344L1162.217098067825 453.6302003304344L1162.217098067825 435.4146241449878L1239.3849026352625 435.4146241449878L1239.3849026352625 453.6302003304344ZM1212.7088687504597 443.45356437889563L1190.157684348973 443.45356437889563L1190.157684348973 315.31225488259645L1212.7088687504597 315.31225488259645L1212.7088687504597 443.45356437889563ZM1239.3849026352625 323.1404363837802L1162.217098067825 323.1404363837802L1162.217098067825 304.9248601983335L1239.3849026352625 304.9248601983335L1239.3849026352625 323.1404363837802ZM1338.4415070156253 453.6302003304344L1268.650258093534 453.6302003304344L1268.650258093534 435.4146241449878L1338.4415070156253 435.4146241449878L1338.4415070156253 453.6302003304344ZM1324.3507803134949 441.0448931477622L1295.9585681765095 441.0448931477622L1237.2170985272426 372.9999308682425L1254.5595313914034 361.9200432050286L1324.3507803134949 441.0448931477622ZM1336.4844616403295 323.1404363837802L1266.9039714509622 323.1404363837802L1266.9039714509622 304.9248601983335L1336.4844616403295 304.9248601983335L1336.4844616403295 323.1404363837802Z " fill="#e2d1f9" transform="matrix(0.6543267969171692,0,0,0.6543267969171692,-0.7782199897311017,51.404935597101556)"/></g></svg>